<svg width="50" height="50" viewBox="0 0 50 50" fill="none" xmlns="http://www.w3.org/2000/svg">
<g clip-path="url(#clip0_1_310)">
<rect width="50" height="50" rx="10" fill="white"/>
<rect width="50" height="50" fill="#734BDF"/>
<g clip-path="url(#clip1_1_310)">
<g clip-path="url(#clip2_1_310)">
<g clip-path="url(#clip3_1_310)">
<mask id="mask0_1_310" style="mask-type:luminance" maskUnits="userSpaceOnUse" x="13" y="13" width="24" height="24">
<path d="M37 13H13V37H37V13Z" fill="white"/>
</mask>
<g mask="url(#mask0_1_310)">
<path d="M23.2862 35.7139H26.7148" stroke="white" stroke-width="1.44" stroke-linecap="round" stroke-linejoin="round"/>
<path d="M31.8563 22.8572C31.8563 21.0385 31.1339 19.2944 29.8479 18.0084C28.562 16.7224 26.8179 16 24.9992 16C23.1806 16 21.4364 16.7224 20.1505 18.0084C18.8645 19.2944 18.1421 21.0385 18.1421 22.8572V28.8572C18.1421 29.5392 17.8711 30.1932 17.3889 30.6754C16.9067 31.1576 16.2526 31.4285 15.5706 31.4285H34.4278C33.7458 31.4285 33.0917 31.1576 32.6095 30.6754C32.1272 30.1932 31.8563 29.5392 31.8563 28.8572V22.8572Z" stroke="white" stroke-width="1.44" stroke-linecap="round" stroke-linejoin="round"/>
<path d="M13.8569 22.634C13.8578 21.0022 14.2469 19.3941 14.9921 17.9424C15.7373 16.4908 16.8172 15.2373 18.1426 14.2854" stroke="white" stroke-width="1.44" stroke-linecap="round" stroke-linejoin="round"/>
<path d="M36.1426 22.634C36.1417 21.0022 35.7526 19.3941 35.0073 17.9424C34.2621 16.4908 33.1823 15.2373 31.8569 14.2854" stroke="white" stroke-width="1.44" stroke-linecap="round" stroke-linejoin="round"/>
</g>
</g>
</g>
</g>
</g>
<defs>
<clipPath id="clip0_1_310">
<rect width="50" height="50" rx="10" fill="white"/>
</clipPath>
<clipPath id="clip1_1_310">
<rect width="24" height="24" fill="white" transform="translate(13 13)"/>
</clipPath>
<clipPath id="clip2_1_310">
<rect width="24" height="24" fill="white" transform="translate(13 13)"/>
</clipPath>
<clipPath id="clip3_1_310">
<rect width="24" height="24" fill="white" transform="translate(13 13)"/>
</clipPath>
</defs>
</svg>
