<svg width="50" height="50" viewBox="0 0 50 50" fill="none" xmlns="http://www.w3.org/2000/svg">
<rect width="50" height="50" rx="10" fill="#734BDF"/>
<g clip-path="url(#clip0_1_358)">
<g clip-path="url(#clip1_1_358)">
<g clip-path="url(#clip2_1_358)">
<mask id="mask0_1_358" style="mask-type:luminance" maskUnits="userSpaceOnUse" x="13" y="13" width="24" height="24">
<path d="M37 13H13V37H37V13Z" fill="white"/>
</mask>
<g mask="url(#mask0_1_358)">
<path d="M20.9714 16.8398L20.3028 16.9941C20.3634 17.2576 20.371 17.5305 20.3251 17.797C20.2793 18.0634 20.1809 18.3181 20.0357 18.5462C19.8906 18.7743 19.7015 18.9713 19.4796 19.1257C19.2576 19.2801 19.0072 19.3888 18.7428 19.4456C18.2068 19.5583 17.6479 19.4563 17.1863 19.1614C16.7247 18.8664 16.3972 18.4022 16.2743 17.8684L14.9371 18.1427C14.7538 18.1827 14.5804 18.2595 14.4275 18.3684C14.2747 18.4773 14.1455 18.616 14.0477 18.7762C13.95 18.9365 13.8857 19.1149 13.8589 19.3006C13.832 19.4864 13.8431 19.6756 13.8914 19.857C13.8914 19.857 14.5086 22.7198 15.2286 25.9427" stroke="white" stroke-width="1.44" stroke-linecap="round" stroke-linejoin="round"/>
<path d="M33.8286 16.8227C33.7261 17.1114 33.5662 17.3762 33.3583 17.6012C33.1506 17.8262 32.8993 18.0067 32.6196 18.1317C32.34 18.2567 32.0378 18.3237 31.7316 18.3285C31.4254 18.3333 31.1213 18.2759 30.8379 18.1597C30.5545 18.0436 30.2977 17.8711 30.0828 17.6527C29.8681 17.4344 29.6999 17.1747 29.5883 16.8894C29.4769 16.6041 29.4245 16.2992 29.4343 15.993C29.4442 15.6869 29.5161 15.386 29.6457 15.1084L28.2572 14.457C27.8864 14.3025 27.4696 14.3004 27.0973 14.4513C26.725 14.6021 26.4272 14.8937 26.2686 15.2627L20.5086 28.8227L19.7543 30.537C19.5998 30.9078 19.5977 31.3246 19.7486 31.6969C19.8994 32.0692 20.191 32.367 20.56 32.5255L27.52 35.4913C27.8908 35.6458 28.3076 35.6479 28.6799 35.497C29.0522 35.3462 29.3499 35.0546 29.5086 34.6855L36.0229 19.3599C36.1665 19.0035 36.1704 18.606 36.0338 18.2469C35.897 17.8878 35.63 17.5935 35.2857 17.4227L33.8286 16.8227Z" stroke="white" stroke-width="1.44" stroke-linecap="round" stroke-linejoin="round"/>
</g>
</g>
</g>
</g>
<defs>
<clipPath id="clip0_1_358">
<rect width="24" height="24" fill="white" transform="translate(13 13)"/>
</clipPath>
<clipPath id="clip1_1_358">
<rect width="24" height="24" fill="white" transform="translate(13 13)"/>
</clipPath>
<clipPath id="clip2_1_358">
<rect width="24" height="24" fill="white" transform="translate(13 13)"/>
</clipPath>
</defs>
</svg>
